<svg width="24" height="24" viewBox="0 0 24 24" fill="none" xmlns="http://www.w3.org/2000/svg">
<path d="M24 2.84032C23.1153 3.32368 22.1669 3.64822 21.17 3.79553C22.1875 3.04517 22.9694 1.85748 23.336 0.444228C22.3858 1.13704 21.329 1.64112 20.2086 1.91272C19.3107 0.734245 18.0313 0 16.6154 0C13.8957 0 11.6904 2.71142 11.6904 6.05812C11.6904 6.53227 11.7353 6.99491 11.8195 7.43915C7.72691 7.18596 4.10007 4.77376 1.67033 1.10713C1.24573 2.0048 1.00444 3.04517 1.00444 4.1546C1.00444 6.25607 1.87234 8.11125 3.19476 9.19996C2.38672 9.16773 1.62731 8.89383 0.963292 8.44039C0.963292 8.46571 0.963292 8.49103 0.963292 8.51635C0.963292 11.4533 2.66168 13.9001 4.91185 14.4594C4.50035 14.5975 4.06453 14.6711 3.61562 14.6711C3.29764 14.6711 2.98901 14.6343 2.68786 14.5607C3.31634 16.966 5.13444 18.7222 7.28735 18.7705C5.60393 20.3955 3.48094 21.3622 1.17279 21.3622C0.774376 21.3622 0.383446 21.3346 0 21.2771C2.17722 22.9988 4.76595 24 7.54735 24C16.6042 24 21.5572 14.7678 21.5572 6.76245C21.5572 6.50005 21.5516 6.23535 21.5441 5.97756C22.5055 5.12362 23.3397 4.05562 24 2.84032Z" fill="white"/>
</svg>
