<svg width="30" height="24" viewBox="0 0 30 24" fill="none" xmlns="http://www.w3.org/2000/svg">
<path d="M29.1626 4.125C28.8853 2.47559 27.5639 1.27441 26.0305 0.899415C23.7357 0.375 19.4889 0 14.894 0C10.3018 0 5.98696 0.375 3.6895 0.899415C2.15878 1.27441 0.834694 2.39941 0.557367 4.125C0.277326 6 0 8.625 0 12C0 15.375 0.277326 18 0.625342 19.875C0.905382 21.5244 2.22675 22.7256 3.75748 23.1006C6.19359 23.625 10.3698 24 14.9647 24C19.5595 24 23.7357 23.625 26.1718 23.1006C27.7026 22.7256 29.0239 21.6006 29.304 19.875C29.5813 18 29.9293 15.2988 30 12C29.8586 8.625 29.5106 6 29.1626 4.125ZM11.1365 17.25V6.75L19.6275 12L11.1365 17.25Z" fill="white"/>
</svg>
